<svg width="128" height="128" xmlns="http://www.w3.org/2000/svg">
 <title>Miscellaneous 26 final</title>

 <g>
  <title>background</title>
  <rect fill="none" id="canvas_background" height="130" width="130" y="-1" x="-1"/>
 </g>
 <g>
  <title>Layer 1</title>
  <path id="svg_1" d="m37,48.78a12.2,12.2 0 1 0 -12.2,-12.2a12.21,12.21 0 0 0 12.2,12.2zm0,-20.4a8.2,8.2 0 1 1 -8.2,8.2a8.21,8.21 0 0 1 8.2,-8.2z"/>
  <path stroke="null" id="svg_2" d="m36,87.31q1.75,0 3.47,-0.17c0.76,-0.07 1.52,-0.18 2.27,-0.3l41.33,25.54a2,2 0 0 0 2.5,-0.33l28.43,-30.05l2.13,1.06a2,2 0 0 0 2.87,-1.5l1.93,-15.56a11.28,11.28 0 0 0 6.16,-10l0.85,-19.94a6,6 0 0 0 0.06,-0.78l0,-12a6,6 0 0 0 -10,-4.46a6,6 0 0 0 -8,0a6,6 0 0 0 -8,0a6,6 0 0 0 -10,4.46l0,12c0,0.14 0,0.27 0,0.41l0,5l-1.65,-2.27a3.67,3.67 0 0 0 -0.6,-0.71a3.67,3.67 0 0 0 -2,-1.29l-9.26,-3l-0.21,-0.06a3.78,3.78 0 0 0 -4.44,2.82l-0.75,3.31a3.63,3.63 0 0 0 0.5,2.76a3.73,3.73 0 0 0 2.22,1.6l6.36,2.3l5.46,7.52c0.69,1 1.26,1.65 1.76,2.27a13.28,13.28 0 0 1 2.53,4.14a11.47,11.47 0 0 0 7.08,6.63l0,6.6a2,2 0 0 0 1.11,1.79l1.37,0.69l-18.48,19.11l-20.78,-19a35.58,35.58 0 0 0 9.78,-24.59a36,36 0 1 0 -36,36zm10.3,-5.7l-0.78,0.25l-0.63,0.19l-0.8,0.22l-0.63,0.16l-0.83,0.18l-0.63,0.13l-0.85,0.14l-0.62,0.1l-0.9,0.11l-0.59,0.07l-1,0.07l-0.5,0q-0.76,0 -1.52,0t-1.64,0l-0.54,0l-1.08,-0.09l-0.65,-0.08l-1,-0.13l-0.69,-0.12l-0.91,-0.17l-0.7,-0.16l-0.81,-0.2l-0.7,-0.2l-0.85,-0.25l-0.7,-0.23l-0.83,-0.29l-0.73,-0.31l-0.81,-0.33l-0.67,-0.3l-0.8,-0.37l-0.66,-0.34l-0.77,-0.41l-0.64,-0.37l-0.75,-0.45l-0.63,-0.4l-0.72,-0.49l-0.61,-0.43l-0.7,-0.53l-0.59,-0.47l-0.67,-0.56l-0.57,-0.5l-0.6,-0.55l-0.58,-0.5l-0.19,-0.2a22.94,22.94 0 0 1 44.07,1.37l-0.16,0.14l-0.55,0.47l-0.6,0.5l-0.57,0.44l-0.63,0.47l-0.58,0.41l-0.65,0.44l-0.59,0.38l-0.68,0.42l-0.6,0.35l-0.7,0.38l-0.61,0.32l-0.72,0.35l-0.62,0.29l-0.74,0.32l-0.63,0.26l-0.76,0.28l-0.61,0.22zm69.07,-3.36l-12.37,-6.17l0,-4.77l13.73,0l-1.36,10.94zm4.63,-54.94a2,2 0 0 1 4,0l0,11.38l0,1a2,2 0 0 1 -4,-0.41l0,-11.97zm-8,0a2,2 0 0 1 4,0l0,12a2,2 0 0 1 -4,0l0,-12zm-8,0a2,2 0 0 1 4,0l0,12a2,2 0 0 1 -4,0l0,-12zm-8,0a2,2 0 0 1 4,0l0,12a2,2 0 0 1 -4,0.2l0,-0.79a2,2 0 0 0 0,-0.2l0,-11.21zm-0.37,35.3a17.06,17.06 0 0 0 -3.14,-5.18c-0.47,-0.58 -1,-1.23 -1.62,-2.09l-5.82,-8a2,2 0 0 0 -0.94,-0.71l-7,-2.55l0,0l0.61,-2.68l8.93,2.9l0.11,0a2,2 0 0 0 0.36,0.37l0,0l5.33,7.34a2,2 0 0 0 3.55,-1.13l0,-5.88a5.94,5.94 0 0 0 6,-1.2a6,6 0 0 0 8,0a6,6 0 0 0 8,0a6,6 0 0 0 5.73,1.28l-0.63,14.89a7.51,7.51 0 0 1 -7.62,7.37l-12.75,0a7.68,7.68 0 0 1 -7.1,-4.73zm-13.85,40.56a2,2 0 0 0 2.79,-0.09l20.62,-21.38l0,0l5,2.51l-26.45,28l-36.53,-22.68a35.68,35.68 0 0 0 12.14,-6.83l22.43,20.47zm-45.78,-79.86a32,32 0 0 1 32,32a31.61,31.61 0 0 1 -7.53,20.61a26.91,26.91 0 0 0 -50.21,-1.62a32,32 0 0 1 25.74,-50.99z"/>
  <path id="svg_3" d="m104.13,55.69l0,-0.12a1.38,1.38 0 0 1 1.38,-1.37l7.88,0a1.38,1.38 0 0 1 1.38,1.38a2,2 0 0 0 4,0a5.38,5.38 0 0 0 -5.37,-5.37l-7.9,0a5.38,5.38 0 0 0 -5.37,5.38l0,0.13a2,2 0 0 0 4,0l0,-0.03z"/>
 </g>
</svg>