<svg width="64" height="64" xmlns="http://www.w3.org/2000/svg">

 <g>
  <title>background</title>
  <rect fill="none" id="canvas_background" height="66" width="66" y="-1" x="-1"/>
 </g>
 <g>
  <title>Layer 1</title>
  <g id="svg_1">
   <path id="svg_2" d="m58,27c2.757,0 5,-2.243 5,-5l0,-16c0,-2.757 -2.243,-5 -5,-5l-20,0c-2.757,0 -5,2.243 -5,5l0,16c0,2.757 2.243,5 5,5l7,0l0,16.056c0,0.455 -0.105,0.91 -0.305,1.318l-0.839,-4.192c-0.6,-3.002 -3.258,-5.182 -6.321,-5.182c-1.398,0 -2.535,1.138 -2.535,2.535c0,0.502 0.147,0.988 0.426,1.406l1.029,1.544c0.381,0.571 0.627,1.233 0.712,1.914l0.708,5.671c0.108,0.862 0.44,1.685 0.961,2.379l2.164,2.884l0,1.667l-2,0l0,8l24,0l0,-8l-2,0l0,-1.764l1.472,-2.944c0.345,-0.69 0.528,-1.464 0.528,-2.236l0,-12.056c0,-1.654 -1.346,-3 -3,-3c-0.395,0 -0.77,0.081 -1.116,0.22c-0.345,-1.275 -1.501,-2.22 -2.884,-2.22c-0.395,0 -0.77,0.081 -1.116,0.22c-0.345,-1.275 -1.501,-2.22 -2.884,-2.22c-0.352,0 -0.686,0.072 -1,0.184l0,-2.184l7,0zm-20,-2c-1.654,0 -3,-1.346 -3,-3l0,-16c0,-1.654 1.346,-3 3,-3l20,0c1.654,0 3,1.346 3,3l0,16c0,1.654 -1.346,3 -3,3l-7,0l0,-2.085c0.24,0.044 0.482,0.085 0.726,0.085c1.073,0 2.123,-0.435 2.882,-1.194l1.392,-1.392c0.645,-0.645 1,-1.502 1,-2.414s-0.355,-1.77 -1,-2.414l-1.763,-1.763c-0.53,-0.531 -1.236,-0.823 -1.987,-0.823l-0.132,0c-1.07,0 -2.033,0.595 -2.512,1.553c-0.138,0.276 -0.416,0.447 -0.724,0.447l-0.132,0c-0.216,0 -0.419,-0.084 -0.572,-0.237l-0.94,-0.94c-0.154,-0.153 -0.238,-0.356 -0.238,-0.573l0,-0.132c0,-0.309 0.171,-0.586 0.447,-0.724c0.958,-0.479 1.553,-1.442 1.553,-2.512l0,-0.132c0,-0.75 -0.292,-1.456 -0.823,-1.986l-1.763,-1.764c-1.289,-1.29 -3.539,-1.29 -4.828,0l-1.392,1.392c-0.759,0.759 -1.194,1.809 -1.194,2.977c0,0.555 0.111,1.095 0.33,1.605c1.388,3.238 3.576,6.02 6.371,8.122c-0.431,0.52 -0.701,1.178 -0.701,1.904l0,3l-7,0zm9.668,-5.966c-2.88,-1.944 -5.128,-4.645 -6.5,-7.848c-0.111,-0.259 -0.168,-0.535 -0.168,-0.912c0,-0.546 0.222,-1.082 0.608,-1.468l1.392,-1.392c0.526,-0.526 1.474,-0.526 2,0l1.763,1.763c0.153,0.153 0.237,0.356 0.237,0.573l0,0.132c0,0.309 -0.171,0.586 -0.447,0.724c-0.958,0.479 -1.553,1.442 -1.553,2.512l0,0.132c0,0.75 0.292,1.456 0.823,1.986l0.94,0.94c0.53,0.532 1.236,0.824 1.987,0.824l0.132,0c1.07,0 2.033,-0.595 2.512,-1.553c0.138,-0.276 0.416,-0.447 0.724,-0.447l0.132,0c0.216,0 0.419,0.084 0.572,0.237l1.764,1.763c0.263,0.263 0.414,0.628 0.414,1s-0.151,0.737 -0.414,1l-1.392,1.392c-0.613,0.613 -1.621,0.777 -2.396,0.389l-0.086,-0.043c-0.478,-1.023 -1.51,-1.738 -2.712,-1.738c-0.114,0 -0.222,0.021 -0.332,0.034zm13.332,41.966l-20,0l0,-4l20,0l0,4zm-9,-30c0.551,0 1,0.449 1,1l0,2l0,6l2,0l0,-6c0,-0.552 0.449,-1 1,-1s1,0.448 1,1l0,2l0,4l2,0l0,-4c0,-0.552 0.449,-1 1,-1s1,0.448 1,1l0,12.056c0,0.463 -0.109,0.928 -0.317,1.342l-1.683,3.366l0,2.236l-16,0l0,-2.333l-2.563,-3.417c-0.312,-0.417 -0.512,-0.911 -0.577,-1.428l-0.708,-5.671c-0.124,-0.988 -0.481,-1.948 -1.033,-2.775l-1.029,-1.544c-0.059,-0.088 -0.09,-0.19 -0.09,-0.297c0,-0.295 0.24,-0.535 0.535,-0.535c2.112,0 3.946,1.503 4.36,3.574l1.285,6.426l2.438,0l0.854,-1.708c0.345,-0.69 0.528,-1.464 0.528,-2.236l0,-21.056c0,-0.551 0.449,-1 1,-1s1,0.449 1,1l0,10l0,8l2,0l0,-8c0,-0.551 0.449,-1 1,-1z"/>
   <path id="svg_3" d="m26,33l-20,0c-2.757,0 -5,2.243 -5,5l0,16c0,2.757 2.243,5 5,5l20,0c2.757,0 5,-2.243 5,-5l0,-16c0,-2.757 -2.243,-5 -5,-5zm3,21c0,1.654 -1.346,3 -3,3l-20,0c-1.654,0 -3,-1.346 -3,-3l0,-16c0,-1.654 1.346,-3 3,-3l20,0c1.654,0 3,1.346 3,3l0,16z"/>
   <path id="svg_4" d="m26,1l-20,0c-2.757,0 -5,2.243 -5,5l0,16c0,2.757 2.243,5 5,5l20,0c2.757,0 5,-2.243 5,-5l0,-16c0,-2.757 -2.243,-5 -5,-5zm3,21c0,1.654 -1.346,3 -3,3l-20,0c-1.654,0 -3,-1.346 -3,-3l0,-16c0,-1.654 1.346,-3 3,-3l20,0c1.654,0 3,1.346 3,3l0,16z"/>
   <path id="svg_5" d="m16,5c-4.411,0 -8,3.589 -8,8l0,2c0,4.411 3.589,8 8,8l0,-2c-3.309,0 -6,-2.691 -6,-6l0,-2c0,-3.309 2.691,-6 6,-6s6,2.691 6,6l0,5c0,0.551 -0.449,1 -1,1s-1,-0.449 -1,-1l0,-3l0,-1l0,-1c0,-2.206 -1.794,-4 -4,-4s-4,1.794 -4,4l0,2c0,2.206 1.794,4 4,4c0.749,0 1.442,-0.22 2.042,-0.58c0.207,1.455 1.448,2.58 2.958,2.58c1.654,0 3,-1.346 3,-3l0,-5c0,-4.411 -3.589,-8 -8,-8zm0,12c-1.103,0 -2,-0.897 -2,-2l0,-2c0,-1.103 0.897,-2 2,-2s2,0.897 2,2l0,1l0,1c0,1.103 -0.897,2 -2,2z"/>
   <path id="svg_6" d="m5,53l22,0l0,-14l-22,0l0,14zm7.666,-5.052c0.971,0.681 2.123,1.052 3.334,1.052c1.211,0 2.363,-0.371 3.334,-1.052l3.815,3.052l-14.298,0l3.815,-3.052zm8.164,-1.364l4.17,-4.17l0,7.505l-4.17,-3.335zm-2.123,-0.705c-1.446,1.445 -3.968,1.445 -5.414,0l-4.879,-4.879l15.172,0l-4.879,4.879zm-7.538,0.704l-4.169,3.336l0,-7.505l4.169,4.169z"/>
  </g>
 </g>
</svg>