<svg width="64" height="64" xmlns="http://www.w3.org/2000/svg">
 <title>project-plan-scheme-design-work</title>

 <g>
  <title>background</title>
  <rect fill="none" id="canvas_background" height="66" width="66" y="-1" x="-1"/>
 </g>
 <g>
  <title>Layer 1</title>
  <path id="svg_1" d="m50,36l0,-4a0.99974,0.99974 0 0 0 -1,-1l-11.80859,0a5.91675,5.91675 0 0 0 0.80859,-3a6,6 0 0 0 -12,0a5.91675,5.91675 0 0 0 0.80859,3l-11.80859,0a0.99974,0.99974 0 0 0 -1,1l0,4a0.99974,0.99974 0 0 0 1,1l10.86719,0l-2.85938,22.876a0.99963,0.99963 0 0 0 0.99219,1.124l5,0a1.00018,1.00018 0 0 0 0.98047,-0.80371l2.01953,-10.09717l2.01953,10.09717a1.00018,1.00018 0 0 0 0.98047,0.80371l5,0a0.99963,0.99963 0 0 0 0.99219,-1.124l-2.85938,-22.876l10.86719,0a0.99974,0.99974 0 0 0 1,-1zm-2,-1l-11,0a0.99963,0.99963 0 0 0 -0.99219,1.124l2.85938,22.876l-3.04785,0l-2.83887,-14.19629a0.99991,0.99991 0 0 0 -1.96094,0l-2.83887,14.19629l-3.04785,0l2.85938,-22.876a0.99963,0.99963 0 0 0 -0.99219,-1.124l-11,0l0,-2l13.02734,0a1,1 0 0 0 0.59766,-1.80176a3.96194,3.96194 0 0 1 -1.625,-3.19824a4,4 0 0 1 8,0a3.96194,3.96194 0 0 1 -1.625,3.19824a1,1 0 0 0 0.59766,1.80176l13.02734,0l0,2z"/>
  <path id="svg_2" d="m36.65039,2.76807a6.99733,6.99733 0 0 0 -9.68945,10.084a3.9904,3.9904 0 0 1 1.03906,2.80418l0,0.34375a0.99974,0.99974 0 0 0 1,1l6,0a0.99974,0.99974 0 0 0 1,-1l0,-0.519a4.18122,4.18122 0 0 1 1.17773,-2.77588a6.99313,6.99313 0 0 0 -0.52734,-9.937l0,-0.00005zm-0.95117,8.58935a6.19924,6.19924 0 0 0 -1.67871,3.64258l-4.05176,0a5.84541,5.84541 0 0 0 -1.56836,-3.53711a4.99957,4.99957 0 1 1 7.29883,-0.10547z"/>
  <rect id="svg_3" height="2" width="4" y="18" x="30"/>
  <path id="svg_4" d="m13,24a6,6 0 1 0 -6,-6a6.00657,6.00657 0 0 0 6,6zm0,-10a4,4 0 1 1 -4,4a4.00427,4.00427 0 0 1 4,-4z"/>
  <path id="svg_5" d="m2.68555,20.61963l1.74121,0.57666l0.25586,0.61523l-0.7334,1.54348a0.99882,0.99882 0 0 0 0.08887,1.00879a10.99746,10.99746 0 0 0 2.59863,2.59861a0.99735,0.99735 0 0 0 1.00781,0.08838l1.544,-0.73291l0.61523,0.25537l0.57617,1.74072a0.99951,0.99951 0 0 0 0.94917,0.68604l3.3418,0a0.99951,0.99951 0 0 0 0.94922,-0.686l0.56347,-1.70166q0.33692,-0.12523 0.665,-0.27685l1.50684,0.71533a0.996,0.996 0 0 0 1.00781,-0.08838a11.00677,11.00677 0 0 0 2.59863,-2.59863a0.99882,0.99882 0 0 0 0.08887,-1.00879l-0.71574,-1.50639q0.15234,-0.32886 0.27734,-0.665l1.70215,-0.564a0.9997,0.9997 0 0 0 0.68551,-0.94922l0,-3.34082a0.9997,0.9997 0 0 0 -0.68555,-0.94922l-1.70215,-0.56348q-0.1245,-0.3369 -0.27734,-0.66552l0.71582,-1.50635a0.99882,0.99882 0 0 0 -0.08887,-1.00879a11.01383,11.01383 0 0 0 -2.59765,-2.59912a1.00069,1.00069 0 0 0 -1.00879,-0.08838l-1.50684,0.71582q-0.32812,-0.1516 -0.665,-0.27685l-0.56351,-1.7017a0.99951,0.99951 0 0 0 -0.94922,-0.686l-3.3418,0a0.99951,0.99951 0 0 0 -0.94922,0.686l-0.57617,1.74076l-0.61523,0.25537l-1.544,-0.7334a1.00336,1.00336 0 0 0 -1.00879,0.08838a11.03928,11.03928 0 0 0 -2.59765,2.59863a0.99792,0.99792 0 0 0 -0.08887,1.0083l0.7334,1.54444l-0.25586,0.61523l-1.74121,0.57666a0.9997,0.9997 0 0 0 -0.6855,0.94922l0,3.34082a0.9997,0.9997 0 0 0 0.68555,0.94922zm1.31445,-3.56787l1.48926,-0.49317a1.00034,1.00034 0 0 0 0.60937,-0.56543l0.60157,-1.44824a1.00221,1.00221 0 0 0 -0.02051,-0.8125l-0.66309,-1.397a9.059,9.059 0 0 1 1.31934,-1.31934l1.39648,0.66358a0.99817,0.99817 0 0 0 0.8125,0.02051l1.44824,-0.60108a0.99994,0.99994 0 0 0 0.56543,-0.60986l0.49317,-1.48923l1.89648,0l0.49317,1.48926a0.99892,0.99892 0 0 0 0.65722,0.64258a7.108,7.108 0 0 1 1.26953,0.52685a1.00249,1.00249 0 0 0 0.89942,0.021l1.39648,-0.66358a9.03814,9.03814 0 0 1 1.31934,1.31983l-0.66309,1.396a1.00243,1.00243 0 0 0 0.02051,0.89942a7.20841,7.20841 0 0 1 0.52832,1.26953a0.99817,0.99817 0 0 0 0.6416,0.65771l1.48926,0.49316l0,1.89648l-1.48926,0.49317a1.00056,1.00056 0 0 0 -0.6416,0.65722a7.24858,7.24858 0 0 1 -0.52832,1.27051a1.00136,1.00136 0 0 0 -0.02051,0.89893l0.66309,1.396a9.01068,9.01068 0 0 1 -1.31934,1.31934l-1.39648,-0.66309a0.99487,0.99487 0 0 0 -0.89942,0.021a7.108,7.108 0 0 1 -1.26953,0.52685a0.99892,0.99892 0 0 0 -0.65722,0.64258l-0.49317,1.48925l-1.89648,0l-0.49317,-1.48926a0.99994,0.99994 0 0 0 -0.56543,-0.60986l-1.44824,-0.60108a1.00222,1.00222 0 0 0 -0.8125,0.02051l-1.39648,0.66309a9.01068,9.01068 0 0 1 -1.31934,-1.31934l0.66309,-1.396a1.00341,1.00341 0 0 0 0.02051,-0.813l-0.60157,-1.44824a1.00034,1.00034 0 0 0 -0.60937,-0.56543l-1.48926,-0.49315l0,-1.89648z"/>
  <path id="svg_6" d="m62,8l-16,0a0.99974,0.99974 0 0 0 -1,1l0,19a0.99974,0.99974 0 0 0 1,1l16,0a0.99974,0.99974 0 0 0 1,-1l0,-19a0.99974,0.99974 0 0 0 -1,-1zm-1,19l-14,0l0,-17l14,0l0,17z"/>
  <rect id="svg_7" height="7" width="2" y="18" x="49"/>
  <rect id="svg_8" height="10" width="2" y="15" x="53"/>
  <rect id="svg_9" height="13" width="2" y="12" x="57"/>
  <rect id="svg_10" height="2" width="2" y="33" x="53"/>
  <rect id="svg_11" height="2" width="2" y="33" x="9"/>
  <rect id="svg_12" height="2" width="2" y="55" x="58"/>
  <rect id="svg_13" height="2" width="2" y="59" x="58"/>
  <rect id="svg_14" height="2" width="2" y="57" x="60"/>
  <rect id="svg_15" height="2" width="2" y="57" x="56"/>
  <rect id="svg_16" height="2" width="2" y="55" x="4"/>
  <rect id="svg_17" height="2" width="2" y="59" x="4"/>
  <rect id="svg_18" height="2" width="2" y="57" x="6"/>
  <rect id="svg_19" height="2" width="2" y="57" x="2"/>
 </g>
</svg>