<svg width="100" height="100" xmlns="http://www.w3.org/2000/svg">
 <title>99all</title>

 <g>
  <title>background</title>
  <rect fill="none" id="canvas_background" height="102" width="102" y="-1" x="-1"/>
 </g>
 <g>
  <title>Layer 1</title>
  <path id="svg_1" d="m86.24,54.28c1.17,-9.82 2.5,-20.95 -0.39,-27.42c-4.31,-12.15 -17.32,-20.94 -31,-20.94c-17.51,0 -32.35,14 -32.8,30.65l-9.37,23.9a4,4 0 0 0 3.32,5.44l6.75,0.64l2.63,12.8a4,4 0 0 0 4.18,3.18l9.44,-0.62l-0.3,8a4,4 0 0 0 4,4.15l0,0l40.41,-0.46a4,4 0 0 0 3.94,-4.38l-1.56,-16.92a59.14,59.14 0 0 1 -0.13,-9.57c0.16,-2.4 0.51,-5.34 0.88,-8.45zm-8.72,18.78l1.2,12.61l-31.86,0.33l0.14,-5l10.19,-1.88l-1.45,-7.87l-13.07,2.39l-10.13,0.68l-2.54,-12.32a4,4 0 0 0 -3.54,-3.18l-5.41,0.58l8.69,-20.6a4,4 0 0 0 0.26,-1.45c0,-12.48 11.59,-23.43 24.81,-23.43c10.3,0 20.41,6.77 23.53,15.75c0,0.13 0.1,0.26 0.16,0.38c2,4.37 0.74,15.3 -0.21,23.28c-0.38,3.21 -0.75,6.24 -0.92,8.85a67,67 0 0 0 0.15,10.88z"/>
  <rect id="svg_2" transform="matrix(0.18,-0.98,0.98,0.18,4.13,86.94) " height="7" width="30.41" y="37.5" x="38.8"/>
  <polygon id="svg_3" points="60.07 33.41 66.07 41 60.07 48.59 65.56 52.93 74.99 41 65.56 29.07 60.07 33.41"/>
  <polygon id="svg_4" points="41.93 41 47.93 33.41 42.44 29.07 33.01 41 42.44 52.93 47.93 48.59 41.93 41"/>
 </g>
</svg>